solid OpenSCAD_Model
  facet normal -1 0 0
    outer loop
      vertex -39.55 -16.8 15
      vertex -39.55 0 0
      vertex -39.55 -16.8 0
    endloop
  endfacet
  facet normal -1 0 0
    outer loop
      vertex -39.55 0 0
      vertex -39.55 -16.8 15
      vertex -39.55 0 25
    endloop
  endfacet
  facet normal -1 0 0
    outer loop
      vertex -39.55 -18.1 25
      vertex -39.55 -16.8 15
      vertex -39.55 -18.1 15
    endloop
  endfacet
  facet normal -1 0 0
    outer loop
      vertex -39.55 -16.8 15
      vertex -39.55 -18.1 25
      vertex -39.55 0 25
    endloop
  endfacet
  facet normal 0 0 1
    outer loop
      vertex 39.55 0 25
      vertex 38.25 -1.3 25
      vertex 39.55 -18.1 25
    endloop
  endfacet
  facet normal 0 0 1
    outer loop
      vertex 39.55 0 25
      vertex -38.25 -1.3 25
      vertex 38.25 -1.3 25
    endloop
  endfacet
  facet normal 0 0 1
    outer loop
      vertex -38.25 -1.3 25
      vertex -39.55 0 25
      vertex -38.25 -16.8 25
    endloop
  endfacet
  facet normal -0 0 1
    outer loop
      vertex -39.55 0 25
      vertex -38.25 -1.3 25
      vertex 39.55 0 25
    endloop
  endfacet
  facet normal -0 0 1
    outer loop
      vertex 38.25 -16.8 25
      vertex 39.55 -18.1 25
      vertex 38.25 -1.3 25
    endloop
  endfacet
  facet normal -0 0 1
    outer loop
      vertex -38.25 -16.8 25
      vertex 39.55 -18.1 25
      vertex 38.25 -16.8 25
    endloop
  endfacet
  facet normal 0 0 1
    outer loop
      vertex -38.25 -16.8 25
      vertex -39.55 -18.1 25
      vertex 39.55 -18.1 25
    endloop
  endfacet
  facet normal 0 0 1
    outer loop
      vertex -39.55 -18.1 25
      vertex -38.25 -16.8 25
      vertex -39.55 0 25
    endloop
  endfacet
  facet normal 1 0 0
    outer loop
      vertex 39.55 0 25
      vertex 39.55 -16.8 15
      vertex 39.55 0 0
    endloop
  endfacet
  facet normal 1 -0 0
    outer loop
      vertex 39.55 -18.1 25
      vertex 39.55 -16.8 15
      vertex 39.55 0 25
    endloop
  endfacet
  facet normal 1 0 0
    outer loop
      vertex 39.55 -16.8 15
      vertex 39.55 -18.1 25
      vertex 39.55 -18.1 15
    endloop
  endfacet
  facet normal 1 0 0
    outer loop
      vertex 39.55 0 0
      vertex 39.55 -16.8 15
      vertex 39.55 -16.8 0
    endloop
  endfacet
  facet normal 0 0 -1
    outer loop
      vertex 49.55 -18.1 0
      vertex 39.55 -16.8 0
      vertex 49.55 -16.8 0
    endloop
  endfacet
  facet normal 0 0 -1
    outer loop
      vertex 39.55 -16.8 0
      vertex 27.5 0 0
      vertex 39.55 0 0
    endloop
  endfacet
  facet normal 0 0 -1
    outer loop
      vertex 27.5 0 0
      vertex 21.5 0 0
      vertex 27.5 4 0
    endloop
  endfacet
  facet normal 0 0 -1
    outer loop
      vertex 39.55 -16.8 0
      vertex 21.5 0 0
      vertex 27.5 0 0
    endloop
  endfacet
  facet normal 0 0 -1
    outer loop
      vertex 39.55 -16.8 0
      vertex -21.5 0 0
      vertex 21.5 0 0
    endloop
  endfacet
  facet normal 0 0 -1
    outer loop
      vertex -21.5 0 0
      vertex -27.5 0 0
      vertex -21.5 4 0
    endloop
  endfacet
  facet normal 0 0 -1
    outer loop
      vertex -39.55 -16.8 0
      vertex -21.5 0 0
      vertex 39.55 -16.8 0
    endloop
  endfacet
  facet normal -0 0 -1
    outer loop
      vertex -21.5 0 0
      vertex -39.55 -16.8 0
      vertex -27.5 0 0
    endloop
  endfacet
  facet normal 0 0 -1
    outer loop
      vertex 49.55 -18.1 0
      vertex -39.55 -16.8 0
      vertex 39.55 -16.8 0
    endloop
  endfacet
  facet normal 0 0 -1
    outer loop
      vertex -49.55 -18.1 0
      vertex -39.55 -16.8 0
      vertex 49.55 -18.1 0
    endloop
  endfacet
  facet normal -0 0 -1
    outer loop
      vertex -39.55 -16.8 0
      vertex -49.55 -18.1 0
      vertex -49.55 -16.8 0
    endloop
  endfacet
  facet normal -0 0 -1
    outer loop
      vertex 27.5 4 0
      vertex 21.5 0 0
      vertex 21.5 4 0
    endloop
  endfacet
  facet normal -0 0 -1
    outer loop
      vertex -21.5 4 0
      vertex -27.5 0 0
      vertex -27.5 4 0
    endloop
  endfacet
  facet normal -0 0 -1
    outer loop
      vertex -27.5 0 0
      vertex -39.55 -16.8 0
      vertex -39.55 0 0
    endloop
  endfacet
  facet normal 0 -1 0
    outer loop
      vertex 39.55 -18.1 15
      vertex 43.3365 -18.1 8.38168
      vertex 45.0135 -18.1 8.92658
    endloop
  endfacet
  facet normal 0 -1 0
    outer loop
      vertex 43.3365 -18.1 6.61832
      vertex -39.55 -18.1 15
      vertex -43.05 -18.1 7.5
    endloop
  endfacet
  facet normal 0 -1 0
    outer loop
      vertex -39.55 -18.1 15
      vertex 43.3365 -18.1 6.61832
      vertex 43.3365 -18.1 8.38168
    endloop
  endfacet
  facet normal 0 -1 0
    outer loop
      vertex -44.0865 -18.1 6.07341
      vertex 43.3365 -18.1 6.61832
      vertex -43.05 -18.1 7.5
    endloop
  endfacet
  facet normal 0 -1 0
    outer loop
      vertex -49.55 -18.1 0
      vertex 43.3365 -18.1 6.61832
      vertex -44.0865 -18.1 6.07341
    endloop
  endfacet
  facet normal 0 -1 0
    outer loop
      vertex -44.0865 -18.1 8.92658
      vertex -39.55 -18.1 15
      vertex -49.55 -18.1 15
    endloop
  endfacet
  facet normal 0 -1 0
    outer loop
      vertex -43.05 -18.1 7.5
      vertex -39.55 -18.1 15
      vertex -44.0865 -18.1 8.92658
    endloop
  endfacet
  facet normal 0 -1 0
    outer loop
      vertex -39.55 -18.1 15
      vertex 43.3365 -18.1 8.38168
      vertex 39.55 -18.1 15
    endloop
  endfacet
  facet normal 0 -1 0
    outer loop
      vertex -49.55 -18.1 15
      vertex -45.7635 -18.1 8.38168
      vertex -44.0865 -18.1 8.92658
    endloop
  endfacet
  facet normal 0 -1 0
    outer loop
      vertex -49.55 -18.1 15
      vertex -45.7635 -18.1 6.61832
      vertex -45.7635 -18.1 8.38168
    endloop
  endfacet
  facet normal 0 -1 -0
    outer loop
      vertex 43.3365 -18.1 6.61832
      vertex -49.55 -18.1 0
      vertex 49.55 -18.1 0
    endloop
  endfacet
  facet normal 0 -1 -0
    outer loop
      vertex -45.7635 -18.1 6.61832
      vertex -49.55 -18.1 0
      vertex -44.0865 -18.1 6.07341
    endloop
  endfacet
  facet normal 0 -1 0
    outer loop
      vertex -49.55 -18.1 0
      vertex -45.7635 -18.1 6.61832
      vertex -49.55 -18.1 15
    endloop
  endfacet
  facet normal 0 -1 0
    outer loop
      vertex -39.55 -18.1 15
      vertex 39.55 -18.1 25
      vertex -39.55 -18.1 25
    endloop
  endfacet
  facet normal 0 -1 -0
    outer loop
      vertex 39.55 -18.1 25
      vertex -39.55 -18.1 15
      vertex 39.55 -18.1 15
    endloop
  endfacet
  facet normal 0 -1 0
    outer loop
      vertex 39.55 -18.1 15
      vertex 45.0135 -18.1 8.92658
      vertex 49.55 -18.1 15
    endloop
  endfacet
  facet normal 0 -1 0
    outer loop
      vertex 46.05 -18.1 7.5
      vertex 49.55 -18.1 15
      vertex 45.0135 -18.1 8.92658
    endloop
  endfacet
  facet normal 0 -1 0
    outer loop
      vertex 46.05 -18.1 7.5
      vertex 49.55 -18.1 0
      vertex 49.55 -18.1 15
    endloop
  endfacet
  facet normal 0 -1 0
    outer loop
      vertex 45.0135 -18.1 6.07341
      vertex 49.55 -18.1 0
      vertex 46.05 -18.1 7.5
    endloop
  endfacet
  facet normal 0 -1 0
    outer loop
      vertex 43.3365 -18.1 6.61832
      vertex 49.55 -18.1 0
      vertex 45.0135 -18.1 6.07341
    endloop
  endfacet
  facet normal 0 1 -0
    outer loop
      vertex 21.5 0 0
      vertex -21.5 0 6
      vertex 21.5 0 6
    endloop
  endfacet
  facet normal 0 1 0
    outer loop
      vertex -21.5 0 6
      vertex 21.5 0 0
      vertex -21.5 0 0
    endloop
  endfacet
  facet normal 0 1 0
    outer loop
      vertex 21.5 0 6
      vertex 39.55 0 25
      vertex 27.5 0 6
    endloop
  endfacet
  facet normal 0 1 -0
    outer loop
      vertex 39.55 0 0
      vertex 27.5 0 6
      vertex 39.55 0 25
    endloop
  endfacet
  facet normal 0 1 0
    outer loop
      vertex 27.5 0 6
      vertex 39.55 0 0
      vertex 27.5 0 0
    endloop
  endfacet
  facet normal 0 1 0
    outer loop
      vertex 39.55 0 25
      vertex 21.5 0 6
      vertex -39.55 0 25
    endloop
  endfacet
  facet normal 0 1 -0
    outer loop
      vertex -21.5 0 6
      vertex -39.55 0 25
      vertex 21.5 0 6
    endloop
  endfacet
  facet normal 0 1 -0
    outer loop
      vertex -27.5 0 6
      vertex -39.55 0 25
      vertex -21.5 0 6
    endloop
  endfacet
  facet normal 0 1 0
    outer loop
      vertex -39.55 0 0
      vertex -27.5 0 6
      vertex -27.5 0 0
    endloop
  endfacet
  facet normal 0 1 0
    outer loop
      vertex -27.5 0 6
      vertex -39.55 0 0
      vertex -39.55 0 25
    endloop
  endfacet
  facet normal 0 1 0
    outer loop
      vertex 25.5548 0 3.26871
      vertex 23.4887 0 3.73473
      vertex 24.8863 0 4.18882
    endloop
  endfacet
  facet normal 0 1 0
    outer loop
      vertex 25.0815 0 2.07989
      vertex 25.5548 0 3.26871
      vertex 25.75 0 3
    endloop
  endfacet
  facet normal 0 1 0
    outer loop
      vertex 25.5548 0 3.26871
      vertex 25.0815 0 2.07989
      vertex 23.4887 0 3.73473
    endloop
  endfacet
  facet normal 0 1 0
    outer loop
      vertex 23.4887 0 3.73473
      vertex 25.0815 0 2.07989
      vertex 23.4887 0 2.26527
    endloop
  endfacet
  facet normal 0 1 0
    outer loop
      vertex 23.4887 0 2.26527
      vertex 25.0815 0 2.07989
      vertex 24.8863 0 1.81118
    endloop
  endfacet
  facet normal 0 1 0
    outer loop
      vertex -23.4452 0 3.26871
      vertex -25.5113 0 3.73473
      vertex -24.1137 0 4.18882
    endloop
  endfacet
  facet normal 0 1 0
    outer loop
      vertex -23.9185 0 2.07989
      vertex -23.4452 0 3.26871
      vertex -23.25 0 3
    endloop
  endfacet
  facet normal 0 1 0
    outer loop
      vertex -23.4452 0 3.26871
      vertex -23.9185 0 2.07989
      vertex -25.5113 0 3.73473
    endloop
  endfacet
  facet normal 0 1 0
    outer loop
      vertex -25.5113 0 3.73473
      vertex -23.9185 0 2.07989
      vertex -25.5113 0 2.26527
    endloop
  endfacet
  facet normal 0 1 0
    outer loop
      vertex -25.5113 0 2.26527
      vertex -23.9185 0 2.07989
      vertex -24.1137 0 1.81118
    endloop
  endfacet
  facet normal 1 -0 0
    outer loop
      vertex -38.25 -16.8 25
      vertex -38.25 -1.3 0.799999
      vertex -38.25 -1.3 25
    endloop
  endfacet
  facet normal 1 0 0
    outer loop
      vertex -38.25 -1.3 0.799999
      vertex -38.25 -16.8 25
      vertex -38.25 -16.8 0.799999
    endloop
  endfacet
  facet normal -1 0 0
    outer loop
      vertex 38.25 -16.8 0.799999
      vertex 38.25 -1.3 25
      vertex 38.25 -1.3 0.799999
    endloop
  endfacet
  facet normal -1 -0 0
    outer loop
      vertex 38.25 -1.3 25
      vertex 38.25 -16.8 0.799999
      vertex 38.25 -16.8 25
    endloop
  endfacet
  facet normal 0 -1 0
    outer loop
      vertex -38.25 -1.3 0.799999
      vertex 38.25 -1.3 25
      vertex -38.25 -1.3 25
    endloop
  endfacet
  facet normal 0 -1 -0
    outer loop
      vertex 38.25 -1.3 25
      vertex -38.25 -1.3 0.799999
      vertex 38.25 -1.3 0.799999
    endloop
  endfacet
  facet normal -0 0 1
    outer loop
      vertex -38.25 -1.3 0.799999
      vertex 38.25 -16.8 0.799999
      vertex 38.25 -1.3 0.799999
    endloop
  endfacet
  facet normal 0 0 1
    outer loop
      vertex 38.25 -16.8 0.799999
      vertex -38.25 -1.3 0.799999
      vertex -38.25 -16.8 0.799999
    endloop
  endfacet
  facet normal 0 1 -0
    outer loop
      vertex 38.25 -16.8 0.799999
      vertex -38.25 -16.8 25
      vertex 38.25 -16.8 25
    endloop
  endfacet
  facet normal 0 1 0
    outer loop
      vertex -38.25 -16.8 25
      vertex 38.25 -16.8 0.799999
      vertex -38.25 -16.8 0.799999
    endloop
  endfacet
  facet normal -1 0 0
    outer loop
      vertex 21.5 0 0
      vertex 21.5 4 6
      vertex 21.5 4 0
    endloop
  endfacet
  facet normal -1 -0 0
    outer loop
      vertex 21.5 4 6
      vertex 21.5 0 0
      vertex 21.5 0 6
    endloop
  endfacet
  facet normal -0 0 1
    outer loop
      vertex 21.5 4 6
      vertex 27.5 0 6
      vertex 27.5 4 6
    endloop
  endfacet
  facet normal 0 0 1
    outer loop
      vertex 27.5 0 6
      vertex 21.5 4 6
      vertex 21.5 0 6
    endloop
  endfacet
  facet normal 1 -0 0
    outer loop
      vertex 27.5 0 6
      vertex 27.5 4 0
      vertex 27.5 4 6
    endloop
  endfacet
  facet normal 1 0 0
    outer loop
      vertex 27.5 4 0
      vertex 27.5 0 6
      vertex 27.5 0 0
    endloop
  endfacet
  facet normal 0 1 0
    outer loop
      vertex 27.5 4 6
      vertex 24.8863 4 4.18882
      vertex 21.5 4 6
    endloop
  endfacet
  facet normal 0 1 0
    outer loop
      vertex 27.5 4 6
      vertex 25.0815 4 3.92011
      vertex 24.8863 4 4.18882
    endloop
  endfacet
  facet normal 0 1 0
    outer loop
      vertex 27.5 4 6
      vertex 25.75 4 3
      vertex 25.0815 4 3.92011
    endloop
  endfacet
  facet normal 0 1 0
    outer loop
      vertex 27.5 4 0
      vertex 25.5548 4 2.73129
      vertex 25.75 4 3
    endloop
  endfacet
  facet normal 0 1 0
    outer loop
      vertex 25.5548 4 2.73129
      vertex 27.5 4 0
      vertex 24.8863 4 1.81118
    endloop
  endfacet
  facet normal 0 1 -0
    outer loop
      vertex 27.5 4 0
      vertex 25.75 4 3
      vertex 27.5 4 6
    endloop
  endfacet
  facet normal 0 1 -0
    outer loop
      vertex 23.4887 4 3.73473
      vertex 21.5 4 6
      vertex 24.8863 4 4.18882
    endloop
  endfacet
  facet normal 0 1 -0
    outer loop
      vertex 23.4887 4 2.26527
      vertex 21.5 4 6
      vertex 23.4887 4 3.73473
    endloop
  endfacet
  facet normal 0 1 0
    outer loop
      vertex 21.5 4 0
      vertex 24.8863 4 1.81118
      vertex 27.5 4 0
    endloop
  endfacet
  facet normal 0 1 0
    outer loop
      vertex 23.4887 4 2.26527
      vertex 21.5 4 0
      vertex 21.5 4 6
    endloop
  endfacet
  facet normal 0 1 0
    outer loop
      vertex 24.8863 4 1.81118
      vertex 21.5 4 0
      vertex 23.4887 4 2.26527
    endloop
  endfacet
  facet normal -1 0 0
    outer loop
      vertex -27.5 0 0
      vertex -27.5 4 6
      vertex -27.5 4 0
    endloop
  endfacet
  facet normal -1 -0 0
    outer loop
      vertex -27.5 4 6
      vertex -27.5 0 0
      vertex -27.5 0 6
    endloop
  endfacet
  facet normal -0 0 1
    outer loop
      vertex -27.5 4 6
      vertex -21.5 0 6
      vertex -21.5 4 6
    endloop
  endfacet
  facet normal 0 0 1
    outer loop
      vertex -21.5 0 6
      vertex -27.5 4 6
      vertex -27.5 0 6
    endloop
  endfacet
  facet normal 1 -0 0
    outer loop
      vertex -21.5 0 6
      vertex -21.5 4 0
      vertex -21.5 4 6
    endloop
  endfacet
  facet normal 1 0 0
    outer loop
      vertex -21.5 4 0
      vertex -21.5 0 6
      vertex -21.5 0 0
    endloop
  endfacet
  facet normal 0 1 0
    outer loop
      vertex -21.5 4 6
      vertex -24.1137 4 4.18882
      vertex -27.5 4 6
    endloop
  endfacet
  facet normal 0 1 0
    outer loop
      vertex -21.5 4 6
      vertex -23.9185 4 3.92011
      vertex -24.1137 4 4.18882
    endloop
  endfacet
  facet normal 0 1 0
    outer loop
      vertex -21.5 4 6
      vertex -23.25 4 3
      vertex -23.9185 4 3.92011
    endloop
  endfacet
  facet normal 0 1 0
    outer loop
      vertex -21.5 4 0
      vertex -23.4452 4 2.73129
      vertex -23.25 4 3
    endloop
  endfacet
  facet normal 0 1 0
    outer loop
      vertex -23.4452 4 2.73129
      vertex -21.5 4 0
      vertex -24.1137 4 1.81118
    endloop
  endfacet
  facet normal 0 1 -0
    outer loop
      vertex -21.5 4 0
      vertex -23.25 4 3
      vertex -21.5 4 6
    endloop
  endfacet
  facet normal 0 1 -0
    outer loop
      vertex -25.5113 4 3.73473
      vertex -27.5 4 6
      vertex -24.1137 4 4.18882
    endloop
  endfacet
  facet normal 0 1 -0
    outer loop
      vertex -25.5113 4 2.26527
      vertex -27.5 4 6
      vertex -25.5113 4 3.73473
    endloop
  endfacet
  facet normal 0 1 0
    outer loop
      vertex -27.5 4 0
      vertex -24.1137 4 1.81118
      vertex -21.5 4 0
    endloop
  endfacet
  facet normal 0 1 0
    outer loop
      vertex -25.5113 4 2.26527
      vertex -27.5 4 0
      vertex -27.5 4 6
    endloop
  endfacet
  facet normal 0 1 0
    outer loop
      vertex -24.1137 4 1.81118
      vertex -27.5 4 0
      vertex -25.5113 4 2.26527
    endloop
  endfacet
  facet normal -0.809017 -5.97084e-006 -0.587786
    outer loop
      vertex 24.8863 0 4.18882
      vertex 25.0815 4 3.92011
      vertex 25.5548 0 3.26871
    endloop
  endfacet
  facet normal -0.809059 0 -0.587728
    outer loop
      vertex 25.0815 4 3.92011
      vertex 24.8863 0 4.18882
      vertex 24.8863 4 4.18882
    endloop
  endfacet
  facet normal 0.309006 0 -0.95106
    outer loop
      vertex 23.4887 0 3.73473
      vertex 24.8863 4 4.18882
      vertex 24.8863 0 4.18882
    endloop
  endfacet
  facet normal 0.309006 0 -0.95106
    outer loop
      vertex 24.8863 4 4.18882
      vertex 23.4887 0 3.73473
      vertex 23.4887 4 3.73473
    endloop
  endfacet
  facet normal -0.809059 0 -0.587728
    outer loop
      vertex 25.5548 0 3.26871
      vertex 25.75 4 3
      vertex 25.75 0 3
    endloop
  endfacet
  facet normal -0.809017 -5.97084e-006 -0.587786
    outer loop
      vertex 25.75 4 3
      vertex 25.5548 0 3.26871
      vertex 25.0815 4 3.92011
    endloop
  endfacet
  facet normal 1 -0 0
    outer loop
      vertex 23.4887 0 3.73473
      vertex 23.4887 4 2.26527
      vertex 23.4887 4 3.73473
    endloop
  endfacet
  facet normal 1 0 0
    outer loop
      vertex 23.4887 4 2.26527
      vertex 23.4887 0 3.73473
      vertex 23.4887 0 2.26527
    endloop
  endfacet
  facet normal 0.309006 0 0.95106
    outer loop
      vertex 23.4887 4 2.26527
      vertex 24.8863 0 1.81118
      vertex 24.8863 4 1.81118
    endloop
  endfacet
  facet normal 0.309006 0 0.95106
    outer loop
      vertex 24.8863 0 1.81118
      vertex 23.4887 4 2.26527
      vertex 23.4887 0 2.26527
    endloop
  endfacet
  facet normal -0.809017 5.97084e-006 0.587786
    outer loop
      vertex 25.75 0 3
      vertex 25.5548 4 2.73129
      vertex 25.0815 0 2.07989
    endloop
  endfacet
  facet normal -0.809059 0 0.587728
    outer loop
      vertex 25.5548 4 2.73129
      vertex 25.75 0 3
      vertex 25.75 4 3
    endloop
  endfacet
  facet normal -0.809059 0 0.587728
    outer loop
      vertex 25.0815 0 2.07989
      vertex 24.8863 4 1.81118
      vertex 24.8863 0 1.81118
    endloop
  endfacet
  facet normal -0.809017 5.97084e-006 0.587786
    outer loop
      vertex 24.8863 4 1.81118
      vertex 25.0815 0 2.07989
      vertex 25.5548 4 2.73129
    endloop
  endfacet
  facet normal -0.809017 -5.97084e-006 -0.587786
    outer loop
      vertex -24.1137 0 4.18882
      vertex -23.9185 4 3.92011
      vertex -23.4452 0 3.26871
    endloop
  endfacet
  facet normal -0.809059 0 -0.587728
    outer loop
      vertex -23.9185 4 3.92011
      vertex -24.1137 0 4.18882
      vertex -24.1137 4 4.18882
    endloop
  endfacet
  facet normal 0.309006 0 -0.95106
    outer loop
      vertex -25.5113 0 3.73473
      vertex -24.1137 4 4.18882
      vertex -24.1137 0 4.18882
    endloop
  endfacet
  facet normal 0.309006 0 -0.95106
    outer loop
      vertex -24.1137 4 4.18882
      vertex -25.5113 0 3.73473
      vertex -25.5113 4 3.73473
    endloop
  endfacet
  facet normal -0.809059 0 -0.587728
    outer loop
      vertex -23.4452 0 3.26871
      vertex -23.25 4 3
      vertex -23.25 0 3
    endloop
  endfacet
  facet normal -0.809017 -5.97084e-006 -0.587786
    outer loop
      vertex -23.25 4 3
      vertex -23.4452 0 3.26871
      vertex -23.9185 4 3.92011
    endloop
  endfacet
  facet normal 1 -0 0
    outer loop
      vertex -25.5113 0 3.73473
      vertex -25.5113 4 2.26527
      vertex -25.5113 4 3.73473
    endloop
  endfacet
  facet normal 1 0 0
    outer loop
      vertex -25.5113 4 2.26527
      vertex -25.5113 0 3.73473
      vertex -25.5113 0 2.26527
    endloop
  endfacet
  facet normal 0.309006 0 0.95106
    outer loop
      vertex -25.5113 4 2.26527
      vertex -24.1137 0 1.81118
      vertex -24.1137 4 1.81118
    endloop
  endfacet
  facet normal 0.309006 0 0.95106
    outer loop
      vertex -24.1137 0 1.81118
      vertex -25.5113 4 2.26527
      vertex -25.5113 0 2.26527
    endloop
  endfacet
  facet normal -0.809017 5.97084e-006 0.587786
    outer loop
      vertex -23.25 0 3
      vertex -23.4452 4 2.73129
      vertex -23.9185 0 2.07989
    endloop
  endfacet
  facet normal -0.809059 0 0.587728
    outer loop
      vertex -23.4452 4 2.73129
      vertex -23.25 0 3
      vertex -23.25 4 3
    endloop
  endfacet
  facet normal -0.809059 0 0.587728
    outer loop
      vertex -23.9185 0 2.07989
      vertex -24.1137 4 1.81118
      vertex -24.1137 0 1.81118
    endloop
  endfacet
  facet normal -0.809017 5.97084e-006 0.587786
    outer loop
      vertex -24.1137 4 1.81118
      vertex -23.9185 0 2.07989
      vertex -23.4452 4 2.73129
    endloop
  endfacet
  facet normal -0 0 1
    outer loop
      vertex 39.55 -16.8 15
      vertex 49.55 -18.1 15
      vertex 49.55 -16.8 15
    endloop
  endfacet
  facet normal 0 0 1
    outer loop
      vertex 49.55 -18.1 15
      vertex 39.55 -16.8 15
      vertex 39.55 -18.1 15
    endloop
  endfacet
  facet normal 1 -0 0
    outer loop
      vertex 49.55 -18.1 15
      vertex 49.55 -16.8 0
      vertex 49.55 -16.8 15
    endloop
  endfacet
  facet normal 1 0 0
    outer loop
      vertex 49.55 -16.8 0
      vertex 49.55 -18.1 15
      vertex 49.55 -18.1 0
    endloop
  endfacet
  facet normal 0 1 0
    outer loop
      vertex 49.55 -16.8 15
      vertex 45.0135 -16.8 8.92658
      vertex 39.55 -16.8 15
    endloop
  endfacet
  facet normal 0 1 0
    outer loop
      vertex 49.55 -16.8 15
      vertex 46.05 -16.8 7.5
      vertex 45.0135 -16.8 8.92658
    endloop
  endfacet
  facet normal 0 1 0
    outer loop
      vertex 46.05 -16.8 7.5
      vertex 49.55 -16.8 0
      vertex 45.0135 -16.8 6.07341
    endloop
  endfacet
  facet normal 0 1 -0
    outer loop
      vertex 49.55 -16.8 0
      vertex 46.05 -16.8 7.5
      vertex 49.55 -16.8 15
    endloop
  endfacet
  facet normal 0 1 -0
    outer loop
      vertex 43.3365 -16.8 8.38168
      vertex 39.55 -16.8 15
      vertex 45.0135 -16.8 8.92658
    endloop
  endfacet
  facet normal 0 1 -0
    outer loop
      vertex 43.3365 -16.8 6.61832
      vertex 39.55 -16.8 15
      vertex 43.3365 -16.8 8.38168
    endloop
  endfacet
  facet normal 0 1 0
    outer loop
      vertex 39.55 -16.8 0
      vertex 45.0135 -16.8 6.07341
      vertex 49.55 -16.8 0
    endloop
  endfacet
  facet normal 0 1 0
    outer loop
      vertex 43.3365 -16.8 6.61832
      vertex 39.55 -16.8 0
      vertex 39.55 -16.8 15
    endloop
  endfacet
  facet normal 0 1 0
    outer loop
      vertex 45.0135 -16.8 6.07341
      vertex 39.55 -16.8 0
      vertex 43.3365 -16.8 6.61832
    endloop
  endfacet
  facet normal -1 0 0
    outer loop
      vertex -49.55 -18.1 0
      vertex -49.55 -16.8 15
      vertex -49.55 -16.8 0
    endloop
  endfacet
  facet normal -1 -0 0
    outer loop
      vertex -49.55 -16.8 15
      vertex -49.55 -18.1 0
      vertex -49.55 -18.1 15
    endloop
  endfacet
  facet normal -0 0 1
    outer loop
      vertex -49.55 -16.8 15
      vertex -39.55 -18.1 15
      vertex -39.55 -16.8 15
    endloop
  endfacet
  facet normal 0 0 1
    outer loop
      vertex -39.55 -18.1 15
      vertex -49.55 -16.8 15
      vertex -49.55 -18.1 15
    endloop
  endfacet
  facet normal 0 1 0
    outer loop
      vertex -39.55 -16.8 15
      vertex -44.0865 -16.8 8.92658
      vertex -49.55 -16.8 15
    endloop
  endfacet
  facet normal 0 1 0
    outer loop
      vertex -39.55 -16.8 15
      vertex -43.05 -16.8 7.5
      vertex -44.0865 -16.8 8.92658
    endloop
  endfacet
  facet normal 0 1 0
    outer loop
      vertex -43.05 -16.8 7.5
      vertex -39.55 -16.8 0
      vertex -44.0865 -16.8 6.07341
    endloop
  endfacet
  facet normal 0 1 -0
    outer loop
      vertex -39.55 -16.8 0
      vertex -43.05 -16.8 7.5
      vertex -39.55 -16.8 15
    endloop
  endfacet
  facet normal 0 1 -0
    outer loop
      vertex -45.7635 -16.8 8.38168
      vertex -49.55 -16.8 15
      vertex -44.0865 -16.8 8.92658
    endloop
  endfacet
  facet normal 0 1 -0
    outer loop
      vertex -45.7635 -16.8 6.61832
      vertex -49.55 -16.8 15
      vertex -45.7635 -16.8 8.38168
    endloop
  endfacet
  facet normal 0 1 0
    outer loop
      vertex -49.55 -16.8 0
      vertex -44.0865 -16.8 6.07341
      vertex -39.55 -16.8 0
    endloop
  endfacet
  facet normal 0 1 0
    outer loop
      vertex -45.7635 -16.8 6.61832
      vertex -49.55 -16.8 0
      vertex -49.55 -16.8 15
    endloop
  endfacet
  facet normal 0 1 0
    outer loop
      vertex -44.0865 -16.8 6.07341
      vertex -49.55 -16.8 0
      vertex -45.7635 -16.8 6.61832
    endloop
  endfacet
  facet normal -0.809009 0 -0.587796
    outer loop
      vertex 46.05 -18.1 7.5
      vertex 45.0135 -16.8 8.92658
      vertex 46.05 -16.8 7.5
    endloop
  endfacet
  facet normal -0.809009 -0 -0.587796
    outer loop
      vertex 45.0135 -16.8 8.92658
      vertex 46.05 -18.1 7.5
      vertex 45.0135 -18.1 8.92658
    endloop
  endfacet
  facet normal 0.309022 0 -0.951055
    outer loop
      vertex 43.3365 -18.1 8.38168
      vertex 45.0135 -16.8 8.92658
      vertex 45.0135 -18.1 8.92658
    endloop
  endfacet
  facet normal 0.309022 0 -0.951055
    outer loop
      vertex 45.0135 -16.8 8.92658
      vertex 43.3365 -18.1 8.38168
      vertex 43.3365 -16.8 8.38168
    endloop
  endfacet
  facet normal 1 -0 0
    outer loop
      vertex 43.3365 -18.1 8.38168
      vertex 43.3365 -16.8 6.61832
      vertex 43.3365 -16.8 8.38168
    endloop
  endfacet
  facet normal 1 0 0
    outer loop
      vertex 43.3365 -16.8 6.61832
      vertex 43.3365 -18.1 8.38168
      vertex 43.3365 -18.1 6.61832
    endloop
  endfacet
  facet normal 0.309027 0 0.951053
    outer loop
      vertex 43.3365 -16.8 6.61832
      vertex 45.0135 -18.1 6.07341
      vertex 45.0135 -16.8 6.07341
    endloop
  endfacet
  facet normal 0.309027 0 0.951053
    outer loop
      vertex 45.0135 -18.1 6.07341
      vertex 43.3365 -16.8 6.61832
      vertex 43.3365 -18.1 6.61832
    endloop
  endfacet
  facet normal -0.809011 0 0.587793
    outer loop
      vertex 45.0135 -18.1 6.07341
      vertex 46.05 -16.8 7.5
      vertex 45.0135 -16.8 6.07341
    endloop
  endfacet
  facet normal -0.809011 0 0.587793
    outer loop
      vertex 46.05 -16.8 7.5
      vertex 45.0135 -18.1 6.07341
      vertex 46.05 -18.1 7.5
    endloop
  endfacet
  facet normal -0.809009 0 -0.587796
    outer loop
      vertex -43.05 -18.1 7.5
      vertex -44.0865 -16.8 8.92658
      vertex -43.05 -16.8 7.5
    endloop
  endfacet
  facet normal -0.809009 -0 -0.587796
    outer loop
      vertex -44.0865 -16.8 8.92658
      vertex -43.05 -18.1 7.5
      vertex -44.0865 -18.1 8.92658
    endloop
  endfacet
  facet normal 0.309022 0 -0.951055
    outer loop
      vertex -45.7635 -18.1 8.38168
      vertex -44.0865 -16.8 8.92658
      vertex -44.0865 -18.1 8.92658
    endloop
  endfacet
  facet normal 0.309022 0 -0.951055
    outer loop
      vertex -44.0865 -16.8 8.92658
      vertex -45.7635 -18.1 8.38168
      vertex -45.7635 -16.8 8.38168
    endloop
  endfacet
  facet normal 1 -0 0
    outer loop
      vertex -45.7635 -18.1 8.38168
      vertex -45.7635 -16.8 6.61832
      vertex -45.7635 -16.8 8.38168
    endloop
  endfacet
  facet normal 1 0 0
    outer loop
      vertex -45.7635 -16.8 6.61832
      vertex -45.7635 -18.1 8.38168
      vertex -45.7635 -18.1 6.61832
    endloop
  endfacet
  facet normal 0.309027 0 0.951053
    outer loop
      vertex -45.7635 -16.8 6.61832
      vertex -44.0865 -18.1 6.07341
      vertex -44.0865 -16.8 6.07341
    endloop
  endfacet
  facet normal 0.309027 0 0.951053
    outer loop
      vertex -44.0865 -18.1 6.07341
      vertex -45.7635 -16.8 6.61832
      vertex -45.7635 -18.1 6.61832
    endloop
  endfacet
  facet normal -0.809011 0 0.587793
    outer loop
      vertex -44.0865 -18.1 6.07341
      vertex -43.05 -16.8 7.5
      vertex -44.0865 -16.8 6.07341
    endloop
  endfacet
  facet normal -0.809011 0 0.587793
    outer loop
      vertex -43.05 -16.8 7.5
      vertex -44.0865 -18.1 6.07341
      vertex -43.05 -18.1 7.5
    endloop
  endfacet
endsolid OpenSCAD_Model
